<svg id="Layer_1" data-name="Layer 1" xmlns="http://www.w3.org/2000/svg" viewBox="0 0 244.14 794.88"><defs><style>.cls-1{fill:none;}.cls-1,.cls-2,.cls-3,.cls-5,.cls-6,.cls-9{stroke:#fff;}.cls-1,.cls-2,.cls-3,.cls-4,.cls-5,.cls-6,.cls-9{stroke-miterlimit:10;}.cls-2{fill:#867c8f;opacity:1;}.cls-2::hover{opacity:0.5;}.cls-3{fill:#aea6b2;}.cls-4,.cls-7,.cls-8{fill:#fff;}.cls-4{stroke:#fff;}.cls-5{fill:#f9f8f6;}.cls-6{fill:#dfdbdf;}.cls-7,.cls-8{font-size:22.04px;}.cls-7{font-family:CenturySchoolbook, Century Schoolbook;}.cls-8{font-family:CenturyGothic, Century Gothic;}.cls-9{fill:#fff;}</style></defs><title>Hexagon Timeline</title><polygon class="cls-1" points="83.97 31.89 96.03 52.77 83.97 73.66 59.86 73.66 47.8 52.77 59.86 31.89 83.97 31.89"/><polygon class="cls-2" points="180.42 31.89 192.47 52.77 180.42 73.66 156.3 73.66 144.25 52.77 156.3 31.89 180.42 31.89"/><polygon class="cls-1" points="36.84 59.17 48.89 80.05 36.84 100.93 12.72 100.93 0.67 80.05 12.72 59.17 36.84 59.17"/><polygon class="cls-1" points="133.19 59.17 145.25 80.05 133.19 100.93 109.08 100.93 97.03 80.05 109.08 59.17 133.19 59.17"/><polygon class="cls-1" points="228.64 59.17 240.7 80.05 228.64 100.93 204.53 100.93 192.47 80.05 204.53 59.17 228.64 59.17"/><polygon class="cls-1" points="180.42 87.95 192.47 108.84 180.42 129.72 156.3 129.72 144.25 108.84 156.3 87.95 180.42 87.95"/><polygon class="cls-3" points="83.97 87.95 96.03 108.84 83.97 129.72 59.86 129.72 47.8 108.84 59.86 87.95 83.97 87.95"/><polygon class="cls-1" points="83.97 144.01 96.03 164.9 83.97 185.78 59.86 185.78 47.8 164.9 59.86 144.01 83.97 144.01"/><polygon class="cls-1" points="180.42 140.56 192.47 161.44 180.42 182.33 156.3 182.33 144.25 161.44 156.3 140.56 180.42 140.56"/><polygon class="cls-1" points="36.84 115.84 48.89 136.72 36.84 157.6 12.72 157.6 0.67 136.72 12.72 115.84 36.84 115.84"/><polygon class="cls-2" points="228.71 112.84 240.76 133.72 228.71 154.6 204.6 154.6 192.54 133.72 204.6 112.84 228.71 112.84"/><polygon class="cls-3" points="133.61 172.5 145.67 193.39 133.61 214.27 109.5 214.27 97.45 193.39 109.5 172.5 133.61 172.5"/><polygon class="cls-1" points="84.55 200.08 96.6 220.96 84.55 241.84 60.44 241.84 48.38 220.96 60.44 200.08 84.55 200.08"/><polygon class="cls-1" points="182.68 196.29 194.73 217.17 182.68 238.05 158.57 238.05 146.51 217.17 158.57 196.29 182.68 196.29"/><polygon class="cls-2" points="36.84 170.57 48.89 191.45 36.84 212.33 12.72 212.33 0.67 191.45 12.72 170.57 36.84 170.57"/><polygon class="cls-2" points="134.61 233.02 146.67 253.9 134.61 274.78 110.5 274.78 98.45 253.9 110.5 233.02 134.61 233.02"/><polygon class="cls-1" points="228.64 170.57 240.7 191.45 228.64 212.33 204.53 212.33 192.47 191.45 204.53 170.57 228.64 170.57"/><polygon class="cls-1" points="181.84 261.81 193.89 282.69 181.84 303.57 157.72 303.57 145.67 282.69 157.72 261.81 181.84 261.81"/><polygon class="cls-1" points="85.39 261.81 97.45 282.69 85.39 303.57 61.28 303.57 49.22 282.69 61.28 261.81 85.39 261.81"/><polygon class="cls-4" points="133.61 293.54 145.67 314.42 133.61 335.3 109.5 335.3 97.45 314.42 109.5 293.54 133.61 293.54"/><polygon class="cls-3" points="85.39 317.87 97.45 338.75 85.39 359.63 61.28 359.63 49.22 338.75 61.28 317.87 85.39 317.87"/><polygon class="cls-1" points="181.84 314.42 193.89 335.3 181.84 356.18 157.72 356.18 145.67 335.3 157.72 314.42 181.84 314.42"/><polygon class="cls-1" points="134.03 345.36 146.09 366.24 134.03 387.12 109.92 387.12 97.87 366.24 109.92 345.36 134.03 345.36"/><polygon class="cls-5" points="135.03 405.87 147.09 426.76 135.03 447.64 110.92 447.64 98.87 426.76 110.92 405.87 135.03 405.87"/><polygon class="cls-6" points="182.26 434.66 194.31 455.54 182.26 476.43 158.15 476.43 146.09 455.54 158.15 434.66 182.26 434.66"/><polygon class="cls-1" points="85.81 434.66 97.87 455.54 85.81 476.43 61.7 476.43 49.64 455.54 61.7 434.66 85.81 434.66"/><polygon class="cls-2" points="134.03 466.39 146.09 487.27 134.03 508.15 109.92 508.15 97.87 487.27 109.92 466.39 134.03 466.39"/><polygon class="cls-1" points="85.81 490.72 97.87 511.6 85.81 532.49 61.7 532.49 49.64 511.6 61.7 490.72 85.81 490.72"/><polygon class="cls-1" points="182.26 487.27 194.31 508.15 182.26 529.03 158.15 529.03 146.09 508.15 158.15 487.27 182.26 487.27"/><polygon class="cls-6" points="36.88 404.04 48.94 424.92 36.88 445.8 12.77 445.8 0.71 424.92 12.77 404.04 36.88 404.04"/><polygon class="cls-1" points="231.5 401.99 243.56 422.87 231.5 443.75 207.39 443.75 195.34 422.87 207.39 401.99 231.5 401.99"/><polygon class="cls-1" points="134.46 522.06 146.51 542.94 134.46 563.82 110.34 563.82 98.29 542.94 110.34 522.06 134.46 522.06"/><polygon class="cls-1" points="86.23 555.3 98.29 576.18 86.23 597.06 62.12 597.06 50.06 576.18 62.12 555.3 86.23 555.3"/><polygon class="cls-3" points="182.68 555.3 194.73 576.18 182.68 597.06 158.57 597.06 146.51 576.18 158.57 555.3 182.68 555.3"/><polygon class="cls-1" points="39.1 582.57 51.15 603.46 39.1 624.34 14.99 624.34 2.93 603.46 14.99 582.57 39.1 582.57"/><polygon class="cls-1" points="135.46 582.57 147.51 603.46 135.46 624.34 111.34 624.34 99.29 603.46 111.34 582.57 135.46 582.57"/><polygon class="cls-1" points="230.9 582.57 242.96 603.46 230.9 624.34 206.79 624.34 194.73 603.46 206.79 582.57 230.9 582.57"/><polygon class="cls-1" points="182.68 611.36 194.73 632.24 182.68 653.13 158.57 653.13 146.51 632.24 158.57 611.36 182.68 611.36"/><polygon class="cls-2" points="86.23 611.36 98.29 632.24 86.23 653.13 62.12 653.13 50.06 632.24 62.12 611.36 86.23 611.36"/><polygon class="cls-1" points="86.23 667.42 98.29 688.3 86.23 709.19 62.12 709.19 50.06 688.3 62.12 667.42 86.23 667.42"/><polygon class="cls-1" points="182.68 663.97 194.73 684.85 182.68 705.73 158.57 705.73 146.51 684.85 158.57 663.97 182.68 663.97"/><polygon class="cls-6" points="39.1 639.24 51.15 660.13 39.1 681.01 14.99 681.01 2.93 660.13 14.99 639.24 39.1 639.24"/><polygon class="cls-1" points="230.97 636.24 243.03 657.13 230.97 678.01 206.86 678.01 194.8 657.13 206.86 636.24 230.97 636.24"/><polygon class="cls-2" points="135.46 698.76 147.51 719.64 135.46 740.52 111.34 740.52 99.29 719.64 111.34 698.76 135.46 698.76"/><polygon class="cls-1" points="132.19 0.5 144.25 21.38 132.19 42.26 108.08 42.26 96.03 21.38 108.08 0.5 132.19 0.5"/><text class="cls-7" transform="translate(101.35 144.02) scale(0.77 1)">2016</text><polygon class="cls-2" points="231.5 345.36 243.56 366.24 231.5 387.12 207.39 387.12 195.34 366.24 207.39 345.36 231.5 345.36"/><polygon class="cls-1" points="36.74 348.24 48.8 369.12 36.74 390 12.63 390 0.58 369.12 12.63 348.24 36.74 348.24"/><text class="cls-8" transform="translate(53.19 399.65) scale(0.77 1)">2014</text><text class="cls-8" transform="translate(151.06 399.65) scale(0.77 1)">2015</text><text class="cls-8" transform="translate(103.83 671.19) scale(0.77 1)">2012</text><polygon class="cls-1" points="135.46 752.61 147.51 773.49 135.46 794.38 111.34 794.38 99.29 773.49 111.34 752.61 135.46 752.61"/><polygon class="cls-9" points="182.68 724.99 194.73 745.87 182.68 766.75 158.57 766.75 146.51 745.87 158.57 724.99 182.68 724.99"/><polygon class="cls-1" points="86.23 725.31 98.29 746.19 86.23 767.07 62.12 767.07 50.06 746.19 62.12 725.31 86.23 725.31"/></svg>