<?xml version="1.0" encoding="utf-8"?>
<!-- Generator: Adobe Illustrator 18.0.0, SVG Export Plug-In . SVG Version: 6.00 Build 0)  -->
<!DOCTYPE svg PUBLIC "-//W3C//DTD SVG 1.1//EN" "http://www.w3.org/Graphics/SVG/1.1/DTD/svg11.dtd">
<svg version="1.1" id="Layer_1" xmlns="http://www.w3.org/2000/svg" xmlns:xlink="http://www.w3.org/1999/xlink" x="0px" y="0px"
	 viewBox="-83.5 261.5 779 269" enable-background="new -83.5 261.5 779 269" xml:space="preserve">
<g id="Sprout">
	<path fill="#CCFF99" stroke="#CCFF99" stroke-miterlimit="10" d="M19.4,440.2c9.5-6.1,22.9,0.2,33.2-4.7c8-3.8,11.6-13.3,12.4-22.1
		c0.6-6.2,0.2-12.5-1.1-18.5c-1.1-4.9-2.8-9.8-3.7-14.7c-0.9-5-0.9-10.3,1.4-14.8c0.9-2,2.9-3.9,5-3.3c3.3,5.6,0.2,12.8,0.3,19.3
		c0.1,5.1,2.1,9.9,3.3,14.8c1,4,1.4,8.2,1.2,12.4c-0.3,6.6-2.1,13.3-5.8,18.8c-3.7,5.5-9.4,9.8-15.9,11.2c-2.5,0.5-5,0.6-7.5,0.8
		C34.6,439.5,27,439.8,19.4,440.2z"/>
	<path fill="#CCFF99" stroke="#CCFF99" stroke-miterlimit="10" d="M73.8,447c-0.6-1.5,6.7-2.9,6.5-4.5c-0.1-1.1,0.1-2.1-0.2-3.1
		c-0.6-2-2.8-3-4.7-3.8c-1-0.5-2.1-1-2.7-1.9c-1.8-2.4-0.8-6.6-3.3-8.1c0.3,0.9-0.4,1.9-1.3,2c0,0.3-0.1,0.6-0.1,0.9
		c-1.1,0.9-2.2,1.9-3.3,2.8c0,0.5-0.4,1.1-0.7,0.8c-0.4,0.9-0.1,2.1,0.5,2.9c0.6,0.8,1.5,1.4,2.4,1.9c1.6,1,3.3,2.1,5.2,2.5
		c0.9,0.2,1.8,0.3,2.6,0.5c1.6,0.4,3.1,1.2,4.3,2.4c0,0.9,0,1.9,0,2.8c0.4,0,0.7,0,1.1,0c0.9,2.5-7.4,5.2-8,7.8
		c0.4,0,0.8-0.1,1.2-0.1C74.2,451,74.4,448.8,73.8,447z"/>
	<path fill="#CCFF99" stroke="#CCFF99" stroke-miterlimit="10" d="M100.3,438.4c2,0.2,3.9-0.4,5.9-0.7c3.2-0.6,6.4-0.5,9.5,0.2
		c-0.3-2.9-4.1-4-7-3.5c-2.9,0.4-6,1.6-8.6,0.3c-1.4-0.7-2.4-1.9-3.6-2.9c-3-2.6-7.1-3.5-10.8-5c-3.7-1.5-7.5-3.8-8.6-7.7
		c-0.6-2.2-0.2-4.5-0.3-6.7c-0.1-2.7-1.1-5.3-2.6-7.5c-0.2,1.7-0.4,3.3-0.6,5c-0.5,4-1,8-0.3,12c0.7,3.9,2.7,7.9,6.1,9.9
		c2.2,1.3,4.9,1.8,7.5,2.1c1.8,0.2,3.6,0.4,5.3,1C94.9,435.7,97.2,438,100.3,438.4z"/>
	<path fill="#CCFF99" stroke="#CCFF99" stroke-miterlimit="10" d="M57.3,363.5c0.7-1.9,1.1-4,1.1-6c-0.2-7.2-6.8-13.1-14-14.3
		s-14.4,1.6-20.5,5.5c-9.9,6.5-17.7,17.4-16.8,29.1c7.4-5.2,16.5-9.3,25.3-7.3c4.8,1.1,9.3,4,14.2,3.3
		C51.8,373.2,55.6,368.5,57.3,363.5z"/>
	<path fill="#CCFF99" stroke="#CCFF99" stroke-miterlimit="10" d="M70.3,360.7c2.6,2.2,6,3.8,9.3,3.2c2.1-0.4,3.9-1.6,5.7-2.8
		c6.5-4.5,12.7-9.2,18.8-14.2c1.8-1.4,3.5-2.9,5.5-3.9c3.6-1.6,7.7-1.6,11.6-1.5c1.3-1.7-0.7-4-2.6-5.1c-10.8-6.3-23.7-8-36.2-7.9
		c-4.8,0-10,0.5-13.6,3.6c-1.3,1.2-2.4,2.7-3.2,4.2C61.5,344.3,63.6,354.9,70.3,360.7z"/>
</g>
<g id="Layer_5">
	<line fill="none" stroke="#CCCCCC" stroke-width="4" stroke-miterlimit="10" x1="6.7" y1="437.5" x2="650" y2="437.5"/>
	<line fill="none" stroke="#CCCCCC" stroke-width="4" stroke-miterlimit="10" x1="4.3" y1="517.4" x2="650" y2="517.4"/>
</g>
<text transform="matrix(1 0 0 1 7.0723 508.8824)"><tspan x="0" y="0" fill="#F9F9F9" font-family="'MyriadPro-Regular'" font-size="94.5451">Basis</tspan><tspan x="193.8" y="0" fill="#F9F9F9" font-family="'MyriadPro-Regular'" font-size="79.1541">  </tspan><tspan x="227.4" y="0" fill="#F9F9F9" font-family="'MyriadPro-Regular'" font-size="70">For</tspan><tspan x="322.8" y="0" fill="#F9F9F9" font-family="'MyriadPro-Regular'" font-size="79.1541"> </tspan><tspan x="339.6" y="0" fill="#F9F9F9" font-family="'MyriadPro-Regular'" font-size="94.5451">Change</tspan></text>
</svg>
